<mxfile host="app.diagrams.net" modified="2023-06-20T10:01:06.534Z" agent="Mozilla/5.0 (X11; Ubuntu; Linux x86_64; rv:109.0) Gecko/20100101 Firefox/114.0" version="21.2.0" etag="Yzu7OUv6hzXEW96vSeGc" type="github">
  <diagram name="Page-1" id="ZpUHrLKraKKp_xYSWoZ1">
    <mxGraphModel>
      <root>
        <mxCell id="0" />
        <mxCell id="1" parent="0" />
      </root>
    </mxGraphModel>
  </diagram>
</mxfile>
